<svg t="1777429701804" class="icon" viewBox="0 0 1024 1024" version="1.1" xmlns="http://www.w3.org/2000/svg" p-id="11300" width="256" height="256"><path d="M775.634944 591.21664c47.521792 0 86.17984 38.66624 86.17984 86.188032 0 47.521792-38.658048 86.17984-86.17984 86.17984-47.5136 0-86.17984-38.658048-86.17984-86.17984 0-47.5136 38.66624-86.17984 86.17984-86.17984z m0.2048 112.082944c-2.605056 0-4.743168 0.827392-6.397952 2.490368-1.900544 1.654784-2.727936 3.792896-2.727936 6.397952s0.827392 4.734976 2.727936 6.397952c1.654784 1.662976 3.792896 2.613248 6.397952 2.613248 2.613248 0 4.743168-0.835584 6.63552-2.49856 1.662976-1.654784 2.613248-3.907584 2.613248-6.51264 0-2.605056-0.950272-4.743168-2.613248-6.38976a9.412608 9.412608 0 0 0-6.63552-2.49856zM586.235904 408.45312c4.46464-9.404416 17.514496-10.32192 23.248896-1.613824l120.4224 181.8624c-32.104448 16.62976-54.10816 50.13504-54.10816 88.702976 0 11.255808 1.900544 22.061056 5.349376 32.161792l-237.682688 0.598016zM473.546752 300.711936a6.774784 6.774784 0 0 1 0 13.541376h-219.79136c-4.46464 0-8.11008 3.424256-8.11008 7.634944v345.669632l111.378432-168.804352a13.377536 13.377536 0 0 1 22.249472-0.24576l68.943872 100.859904-0.008192 0.008192L398.9504 705.24928c-0.073728 0.188416-0.16384 0.360448-0.24576 0.53248l-1.769472 3.801088h-19.931136l0.016384-0.016384H253.755392c-11.935744 0-21.651456-9.50272-21.651456-21.17632v-366.51008c0-11.6736 9.715712-21.17632 21.651456-21.17632z m310.35392 330.5472h-15.998976l2.965504 60.325888h10.07616l2.94912-60.325888z m-12.45184-330.5472c11.943936 0 21.659648 9.50272 21.659648 21.17632v257.245184a99.926016 99.926016 0 0 0-13.549568-1.458176V321.888256c0-4.210688-3.637248-7.634944-8.11008-7.634944H527.60576v-13.541376z m-426.909696 42.991616a42.295296 42.295296 0 1 1 0 84.590592 42.295296 42.295296 0 0 1 0-84.590592z" fill="#dbdbdb" p-id="11301"></path><path d="M548.41344 257.96608a3.416064 3.416064 0 0 1 6.406144 2.2528l-0.229376 0.65536L442.400768 499.05664H550.58432L430.841856 752.943104a3.416064 3.416064 0 0 1-6.406144-2.260992l0.237568-0.65536 115.13856-244.146176H431.644672L548.41344 257.96608z" fill="#dbdbdb" p-id="11302"></path></svg>